<?xml version="1.0" encoding="UTF-8"?>
<svg version="1.1" xmlns="http://www.w3.org/2000/svg" width="800" height="400">
<path d="M0 0 C12.87 0 25.74 0 39 0 C38.67 1.98 38.34 3.96 38 6 C40.94727535 5.89830839 40.94727535 5.89830839 44 5 C44.66 3.35 45.32 1.7 46 0 C56.56 0 67.12 0 78 0 C77.67 1.65 77.34 3.3 77 5 C79.97 5.495 79.97 5.495 83 6 C82.78201422 9.22759585 82.30131225 12.02566005 81 15 C79.04125977 15.88256836 79.04125977 15.88256836 76.69140625 16.58984375 C74.05426558 17.94272926 72.42680832 19.06137161 71.18106079 21.80099487 C69.62835492 26.65218719 68.71913702 31.64366075 67.84814453 36.65527344 C67.37629614 39.36754952 66.85185766 42.06525849 66.31640625 44.765625 C65.98647159 46.49680568 65.65954694 48.2285633 65.3359375 49.9609375 C65.18401947 50.76220062 65.03210144 51.56346375 64.87557983 52.38900757 C64.06032389 57.13754334 63.71015288 61.26451559 65 66 C66.98 66.99 66.98 66.99 69 68 C68.67 71.3 68.34 74.6 68 78 C57.44 78 46.88 78 36 78 C36.33 76.02 36.66 74.04 37 72 C35.02 72 33.04 72 31 72 C30.82573658 68.80052352 30.96929731 66.0491358 32 63 C33.90991211 62.11743164 33.90991211 62.11743164 36.27734375 61.41015625 C38.92432403 60.05976324 40.56882702 58.94568973 41.82113647 56.19900513 C43.3731777 51.34815735 44.28095306 46.35582093 45.15185547 41.34472656 C45.62370386 38.63245048 46.14814234 35.93474151 46.68359375 33.234375 C47.01352841 31.50319432 47.34045306 29.7714367 47.6640625 28.0390625 C47.89193954 26.83716782 47.89193954 26.83716782 48.12442017 25.61099243 C48.93967611 20.86245666 49.28984712 16.73548441 48 12 C46.68 11.34 45.36 10.68 44 10 C43.01 12.97 42.02 15.94 41 19 C33.41 19 25.82 19 18 19 C17.34 22.96 16.68 26.92 16 31 C20.95 31 25.9 31 31 31 C30.67 32.98 30.34 34.96 30 37 C31.98 37 33.96 37 36 37 C35.69128878 38.79232337 35.37790936 40.58384321 35.0625 42.375 C34.88847656 43.37273437 34.71445312 44.37046875 34.53515625 45.3984375 C34 48 34 48 33 50 C25.74 50 18.48 50 11 50 C10.67 52.97 10.34 55.94 10 59 C9.70728898 60.68416616 9.38950381 62.36454693 9.02734375 64.03515625 C8.85009766 64.86337891 8.67285156 65.69160156 8.49023438 66.54492188 C8.30783203 67.37572266 8.12542969 68.20652344 7.9375 69.0625 C7.75123047 69.92810547 7.56496094 70.79371094 7.37304688 71.68554688 C6.91933733 73.79122451 6.46023996 75.89574007 6 78 C0.72 78 -4.56 78 -10 78 C-9.67 76.02 -9.34 74.04 -9 72 C-10.98 72 -12.96 72 -15 72 C-14.22839826 64.46741549 -12.6561246 57.12856336 -11.09375 49.7265625 C-10.80590863 48.35277486 -10.51827374 46.97894395 -10.23083496 45.60507202 C-9.63106622 42.74197012 -9.02902312 39.87935896 -8.42529297 37.01708984 C-7.65111905 33.34597739 -6.88238876 29.67375003 -6.11528778 26.00115395 C-5.52369462 23.17151043 -4.92941969 20.34243547 -4.33430481 17.51353073 C-4.04963526 16.15888453 -3.76576685 14.80406971 -3.48271179 13.44908524 C-3.08818646 11.56265668 -2.6896981 9.67705826 -2.29101562 7.79150391 C-1.95245544 6.18222519 -1.95245544 6.18222519 -1.60705566 4.54043579 C-1 2 -1 2 0 0 Z " fill="#010000" transform="translate(466,150)"/>
<path d="M0 0 C5.28 0 10.56 0 16 0 C15.67 1.98 15.34 3.96 15 6 C16.98 6 18.96 6 21 6 C17.70177427 23.75507958 14.009298 41.39215519 10 59 C15.61 59 21.22 59 27 59 C26.67 60.98 26.34 62.96 26 65 C27.32 65 28.64 65 30 65 C30.495 63.515 30.495 63.515 31 62 C32.75743103 61.13703918 32.75743103 61.13703918 34.90209961 60.35473633 C37.3373899 59.20337548 38.68746105 58.55047841 40.02859497 56.18832397 C40.70902762 53.90734652 41.17011988 51.67138608 41.56640625 49.32421875 C41.81933693 48.05914238 41.81933693 48.05914238 42.07737732 46.76850891 C42.42658584 44.98882945 42.75928836 43.20584113 43.07641602 41.42016602 C43.56031843 38.69976436 44.09260437 35.99253281 44.63476562 33.28320312 C44.96902147 31.54742629 45.30049444 29.81111077 45.62890625 28.07421875 C45.78396133 27.26981857 45.93901642 26.4654184 46.09877014 25.63664246 C46.93711756 20.8507292 47.13685618 16.80882007 46 12 C44.06402968 10.48705712 44.06402968 10.48705712 42 10 C42.14049518 8.52031676 42.28754826 7.04125484 42.4375 5.5625 C42.51871094 4.73878906 42.59992188 3.91507813 42.68359375 3.06640625 C43 1 43 1 44 0 C46.3756852 -0.0883967 48.72208674 -0.11530305 51.09765625 -0.09765625 C52.16094398 -0.09553383 52.16094398 -0.09553383 53.24571228 -0.09336853 C55.51801712 -0.08775443 57.79022475 -0.07519963 60.0625 -0.0625 C61.59960796 -0.05748681 63.13671745 -0.05292359 64.67382812 -0.04882812 C68.44925642 -0.03778042 72.22461171 -0.02050641 76 0 C75.67 1.65 75.34 3.3 75 5 C77.97 5.495 77.97 5.495 81 6 C80.78201422 9.22759585 80.30131225 12.02566005 79 15 C77.04125977 15.88256836 77.04125977 15.88256836 74.69140625 16.58984375 C72.05426558 17.94272926 70.42680832 19.06137161 69.18106079 21.80099487 C67.62835492 26.65218719 66.71913702 31.64366075 65.84814453 36.65527344 C65.37629614 39.36754952 64.85185766 42.06525849 64.31640625 44.765625 C63.98647159 46.49680568 63.65954694 48.2285633 63.3359375 49.9609375 C63.18401947 50.76220062 63.03210144 51.56346375 62.87557983 52.38900757 C62.06032389 57.13754334 61.71015288 61.26451559 63 66 C64.98 66.99 64.98 66.99 67 68 C66.67 71.3 66.34 74.6 66 78 C55.44 78 44.88 78 34 78 C34.33 76.02 34.66 74.04 35 72 C33.35 72 31.7 72 30 72 C30.020625 72.804375 30.04125 73.60875 30.0625 74.4375 C30 77 30 77 29 78 C26.1156618 78.08865208 23.25537842 78.11521296 20.37109375 78.09765625 C19.07474754 78.09553383 19.07474754 78.09553383 17.75221252 78.09336853 C14.98060708 78.08775239 12.2090812 78.07519719 9.4375 78.0625 C7.5631522 78.05748708 5.68880315 78.05292381 3.81445312 78.04882812 C-0.79039544 78.03777772 -5.39518421 78.0205023 -10 78 C-9.67 76.02 -9.34 74.04 -9 72 C-10.98 72 -12.96 72 -15 72 C-14.22839826 64.46741549 -12.6561246 57.12856336 -11.09375 49.7265625 C-10.80590863 48.35277486 -10.51827374 46.97894395 -10.23083496 45.60507202 C-9.63106622 42.74197012 -9.02902312 39.87935896 -8.42529297 37.01708984 C-7.65111905 33.34597739 -6.88238876 29.67375003 -6.11528778 26.00115395 C-5.52369462 23.17151043 -4.92941969 20.34243547 -4.33430481 17.51353073 C-4.04963526 16.15888453 -3.76576685 14.80406971 -3.48271179 13.44908524 C-3.08818646 11.56265668 -2.6896981 9.67705826 -2.29101562 7.79150391 C-1.95245544 6.18222519 -1.95245544 6.18222519 -1.60705566 4.54043579 C-1 2 -1 2 0 0 Z " fill="#010000" transform="translate(180,150)"/>
<path d="M0 0 C6.27 0 12.54 0 19 0 C19.495 2.97 19.495 2.97 20 6 C21.32 6 22.64 6 24 6 C24.2673999 6.99443115 24.5347998 7.9888623 24.81030273 9.01342773 C25.80022009 12.69127368 26.79456856 16.36790919 27.7902832 20.04418945 C28.22118802 21.63761076 28.65087901 23.23136082 29.0793457 24.82543945 C29.6942622 27.11236012 30.31348777 29.39807557 30.93359375 31.68359375 C31.12529648 32.40026718 31.31699921 33.11694061 31.51451111 33.85533142 C32.22342502 37.20287612 32.22342502 37.20287612 34 40 C34.23710693 38.82381104 34.47421387 37.64762207 34.71850586 36.43579102 C35.59617864 32.08718946 36.47883835 27.73961289 37.36303711 23.39233398 C37.74559255 21.50784606 38.12678066 19.62308005 38.5065918 17.73803711 C39.05161146 15.03425637 39.60148227 12.331502 40.15234375 9.62890625 C40.3221727 8.78099014 40.49200165 7.93307404 40.66697693 7.0594635 C41.88612829 1.11387171 41.88612829 1.11387171 43 0 C45.35313555 -0.07271741 47.70833668 -0.08370868 50.0625 -0.0625 C51.99802734 -0.04896484 51.99802734 -0.04896484 53.97265625 -0.03515625 C54.97167969 -0.02355469 55.97070312 -0.01195312 57 0 C56.67 1.98 56.34 3.96 56 6 C57.98 6 59.96 6 62 6 C60.71195426 14.96376815 59.09456133 23.81054795 57.21484375 32.66796875 C56.82311729 34.53102409 56.82311729 34.53102409 56.42347717 36.43171692 C55.87639031 39.02948185 55.32796017 41.62691461 54.77709961 44.22387695 C54.0711165 47.55289127 53.3708794 50.88308415 52.67232418 54.21366405 C52.00179608 57.40735672 51.32692711 60.60013059 50.65234375 63.79296875 C50.40129379 64.98866989 50.15024384 66.18437103 49.8915863 67.41630554 C49.65786819 68.51537735 49.42415009 69.61444916 49.18334961 70.74682617 C48.97842392 71.71577316 48.77349823 72.68472015 48.56236267 73.68302917 C48 76 48 76 47 78 C41.06 78 35.12 78 29 78 C28.34 76.35 27.68 74.7 27 73 C26.01 72.67 25.02 72.34 24 72 C23.07049017 69.71173825 22.35177919 67.55464691 21.6875 65.1875 C21.37872925 64.14432617 21.37872925 64.14432617 21.0637207 63.08007812 C20.61308638 61.55531767 20.16762436 60.02902177 19.7265625 58.50146484 C18.70386195 54.98043333 17.64107865 51.47180411 16.58007812 47.9621582 C15.37924282 43.977001 14.1896407 39.98851103 13 36 C12.76289307 37.20124512 12.52578613 38.40249023 12.28149414 39.64013672 C11.40289708 44.08733136 10.5205102 48.53376691 9.63696289 52.97998047 C9.25473901 54.90620688 8.87354991 56.83263893 8.4934082 58.75927734 C7.94753129 61.52495881 7.39796458 64.28988484 6.84765625 67.0546875 C6.6778273 67.9193161 6.50799835 68.7839447 6.33302307 69.67477417 C5.11387171 75.77225659 5.11387171 75.77225659 4 78 C-0.62 78 -5.24 78 -10 78 C-9.67 76.02 -9.34 74.04 -9 72 C-10.98 72 -12.96 72 -15 72 C-14.22839826 64.46741549 -12.6561246 57.12856336 -11.09375 49.7265625 C-10.80590863 48.35277486 -10.51827374 46.97894395 -10.23083496 45.60507202 C-9.63106622 42.74197012 -9.02902312 39.87935896 -8.42529297 37.01708984 C-7.65111905 33.34597739 -6.88238876 29.67375003 -6.11528778 26.00115395 C-5.52369462 23.17151043 -4.92941969 20.34243547 -4.33430481 17.51353073 C-4.04963526 16.15888453 -3.76576685 14.80406971 -3.48271179 13.44908524 C-3.08818646 11.56265668 -2.6896981 9.67705826 -2.29101562 7.79150391 C-1.95245544 6.18222519 -1.95245544 6.18222519 -1.60705566 4.54043579 C-1 2 -1 2 0 0 Z " fill="#000000" transform="translate(554,150)"/>
<path d="M0 0 C250.47 0 500.94 0 759 0 C759 1.65 759 3.3 759 5 C508.53 5 258.06 5 0 5 C0 3.35 0 1.7 0 0 Z " fill="#9E6969" transform="translate(31,238)"/>
<path d="M0 0 C250.47 0 500.94 0 759 0 C759 1.65 759 3.3 759 5 C508.53 5 258.06 5 0 5 C0 3.35 0 1.7 0 0 Z " fill="#000000" transform="translate(26,232)"/>
<path d="M0 0 C1.15338867 -0.03673828 1.15338867 -0.03673828 2.33007812 -0.07421875 C9.44602129 -0.11024884 14.43336793 1.98781068 19.796875 6.63671875 C20.50328125 7.43722656 21.2096875 8.23773438 21.9375 9.0625 C23.01257813 10.24392578 23.01257813 10.24392578 24.109375 11.44921875 C29.29310361 18.74736298 30.86752548 25.17422907 30.6875 34.0625 C30.67468994 35.02712158 30.66187988 35.99174316 30.64868164 36.9855957 C30.27030573 50.41737931 26.6771404 62.08969341 17.49609375 72.24609375 C15.80722717 73.81740581 14.11132361 75.10470458 12.1875 76.375 C11.59066406 76.78621094 10.99382812 77.19742188 10.37890625 77.62109375 C5.17099414 80.55498576 -0.02791155 80.78569512 -5.875 80.875 C-6.63079346 80.89353027 -7.38658691 80.91206055 -8.1652832 80.93115234 C-15.13734385 80.85381138 -20.1686898 78.66656603 -25.421875 74.11328125 C-34.03998539 64.3471379 -37.59319782 55.4266662 -36.8125 42.375 C-35.34317554 28.76049991 -31.36509407 15.50216173 -20.46875 6.421875 C-13.66788716 1.75194918 -8.18837783 0.01352333 0 0 Z M-7.41015625 25.29296875 C-15.06979185 35.92612383 -15.55576891 46.69654762 -14.8125 59.375 C-13.28298974 60.90451026 -11.87889586 60.7289351 -9.75 60.875 C-4.64545124 60.8099739 -2.09598508 58.95194749 1.46484375 55.43359375 C9.68404985 45.61154928 9.7874696 33.56973096 9.1875 21.375 C8.8575 20.715 8.5275 20.055 8.1875 19.375 C1.22208872 18.89462681 -2.69450321 19.63187916 -7.41015625 25.29296875 Z " fill="#010000" transform="translate(134.8125,148.625)"/>
<path d="M0 0 C5.28 0 10.56 0 16 0 C15.67 1.98 15.34 3.96 15 6 C16.98 6 18.96 6 21 6 C19.68 12.93 18.36 19.86 17 27 C21.29 27.33 25.58 27.66 30 28 C30.12246094 26.72253906 30.24492188 25.44507813 30.37109375 24.12890625 C30.9425752 18.98557317 31.95361225 13.98822899 33.0625 8.9375 C33.24876953 8.07189453 33.43503906 7.20628906 33.62695312 6.31445312 C34.08066267 4.20877549 34.53976004 2.10425993 35 0 C40.28 0 45.56 0 51 0 C51 1.65 51 3.3 51 5 C52.65 5.33 54.3 5.66 56 6 C55.42627027 14.33854954 53.80569588 22.37906978 52.05859375 30.5390625 C51.76809743 31.91472789 51.47807164 33.29049271 51.18849182 34.66635132 C50.43200914 38.25439938 49.66922188 41.84107749 48.9050293 45.42749023 C48.12356421 49.10058017 47.3481858 52.77495425 46.57226562 56.44921875 C45.05406787 63.6340719 43.52863299 70.81735834 42 78 C36.72 78 31.44 78 26 78 C26 76.35 26 74.7 26 73 C24.35 72.67 22.7 72.34 21 72 C21.57970647 63.50430168 23.23801701 55.31124051 25 47 C20.71 47 16.42 47 12 47 C11.7525 48.77375 11.505 50.5475 11.25 52.375 C9.93302019 61.01171543 7.9670959 69.49183276 6 78 C0.72 78 -4.56 78 -10 78 C-9.67 76.02 -9.34 74.04 -9 72 C-10.98 72 -12.96 72 -15 72 C-14.22839826 64.46741549 -12.6561246 57.12856336 -11.09375 49.7265625 C-10.80590863 48.35277486 -10.51827374 46.97894395 -10.23083496 45.60507202 C-9.63106622 42.74197012 -9.02902312 39.87935896 -8.42529297 37.01708984 C-7.65111905 33.34597739 -6.88238876 29.67375003 -6.11528778 26.00115395 C-5.52369462 23.17151043 -4.92941969 20.34243547 -4.33430481 17.51353073 C-4.04963526 16.15888453 -3.76576685 14.80406971 -3.48271179 13.44908524 C-3.08818646 11.56265668 -2.6896981 9.67705826 -2.29101562 7.79150391 C-1.95245544 6.18222519 -1.95245544 6.18222519 -1.60705566 4.54043579 C-1 2 -1 2 0 0 Z " fill="#000000" transform="translate(43,150)"/>
<path d="M0 0 C4.45798044 -0.14667378 8.91533054 -0.23453375 13.375 -0.3125 C14.62667969 -0.35439453 15.87835937 -0.39628906 17.16796875 -0.43945312 C26.8812532 -0.56659036 33.63974149 0.93362411 40.83984375 7.6484375 C41.53207031 8.54820312 42.22429688 9.44796875 42.9375 10.375 C43.64777344 11.26960937 44.35804688 12.16421875 45.08984375 13.0859375 C49.66935387 20.07226582 50.52652171 25.38766591 50.4375 33.625 C50.42992676 34.59977295 50.42235352 35.5745459 50.41455078 36.57885742 C50.10675414 50.10955288 46.19344294 61.2548599 36.3125 70.8125 C26.80209336 78.37340826 16.40203302 78.53387995 4.8125 78.25 C3.36916569 78.22988384 1.92580399 78.2116422 0.48242188 78.1953125 C-3.0122993 78.1517684 -6.5059674 78.08303158 -10 78 C-9.67 76.02 -9.34 74.04 -9 72 C-10.98 72 -12.96 72 -15 72 C-14.22839826 64.46741549 -12.6561246 57.12856336 -11.09375 49.7265625 C-10.80590863 48.35277486 -10.51827374 46.97894395 -10.23083496 45.60507202 C-9.63106622 42.74197012 -9.02902312 39.87935896 -8.42529297 37.01708984 C-7.65111905 33.34597739 -6.88238876 29.67375003 -6.11528778 26.00115395 C-5.52369462 23.17151043 -4.92941969 20.34243547 -4.33430481 17.51353073 C-4.04963526 16.15888453 -3.76576685 14.80406971 -3.48271179 13.44908524 C-3.08818646 11.56265668 -2.6896981 9.67705826 -2.29101562 7.79150391 C-1.95245544 6.18222519 -1.95245544 6.18222519 -1.60705566 4.54043579 C-1 2 -1 2 0 0 Z M18 19 C15.84483273 27.30877394 13.97834788 35.64267069 12.3125 44.0625 C12.08755859 45.17560547 11.86261719 46.28871094 11.63085938 47.43554688 C11.41880859 48.49966797 11.20675781 49.56378906 10.98828125 50.66015625 C10.79790283 51.61543213 10.60752441 52.57070801 10.41137695 53.55493164 C9.91704215 56.07983106 9.91704215 56.07983106 10 59 C14.92974769 58.7595245 17.78045684 57.25689318 21.32421875 54.01171875 C27.36101865 46.76474451 29.13882356 38.045641 29.1875 28.875 C29.20167969 27.65554687 29.21585938 26.43609375 29.23046875 25.1796875 C29.25129134 21.84274717 29.25129134 21.84274717 27 19 C24.62723912 18.67877786 22.42182587 18.81049318 20.03369141 18.9128418 C19.02701416 18.95598511 19.02701416 18.95598511 18 19 Z " fill="#000000" transform="translate(626,150)"/>
<path d="M0 0 C4.45798044 -0.14667378 8.91533054 -0.23453375 13.375 -0.3125 C14.62667969 -0.35439453 15.87835938 -0.39628906 17.16796875 -0.43945312 C26.8812532 -0.56659036 33.63974149 0.93362411 40.83984375 7.6484375 C41.53207031 8.54820312 42.22429687 9.44796875 42.9375 10.375 C43.64777344 11.26960937 44.35804688 12.16421875 45.08984375 13.0859375 C49.66935387 20.07226582 50.52652171 25.38766591 50.4375 33.625 C50.42992676 34.59977295 50.42235352 35.5745459 50.41455078 36.57885742 C50.10675414 50.10955288 46.19344294 61.2548599 36.3125 70.8125 C26.80209336 78.37340826 16.40203302 78.53387995 4.8125 78.25 C3.36916569 78.22988384 1.92580399 78.2116422 0.48242188 78.1953125 C-3.0122993 78.1517684 -6.5059674 78.08303158 -10 78 C-9.67 76.02 -9.34 74.04 -9 72 C-10.98 72 -12.96 72 -15 72 C-14.22839826 64.46741549 -12.6561246 57.12856336 -11.09375 49.7265625 C-10.80590863 48.35277486 -10.51827374 46.97894395 -10.23083496 45.60507202 C-9.63106622 42.74197012 -9.02902312 39.87935896 -8.42529297 37.01708984 C-7.65111905 33.34597739 -6.88238876 29.67375003 -6.11528778 26.00115395 C-5.52369462 23.17151043 -4.92941969 20.34243547 -4.33430481 17.51353073 C-4.04963526 16.15888453 -3.76576685 14.80406971 -3.48271179 13.44908524 C-3.08818646 11.56265668 -2.6896981 9.67705826 -2.29101562 7.79150391 C-1.95245544 6.18222519 -1.95245544 6.18222519 -1.60705566 4.54043579 C-1 2 -1 2 0 0 Z M18 19 C15.84483273 27.30877394 13.97834788 35.64267069 12.3125 44.0625 C12.08755859 45.17560547 11.86261719 46.28871094 11.63085938 47.43554688 C11.41880859 48.49966797 11.20675781 49.56378906 10.98828125 50.66015625 C10.79790283 51.61543213 10.60752441 52.57070801 10.41137695 53.55493164 C9.91704215 56.07983106 9.91704215 56.07983106 10 59 C14.92974769 58.7595245 17.78045684 57.25689318 21.32421875 54.01171875 C27.36101865 46.76474451 29.13882356 38.045641 29.1875 28.875 C29.20167969 27.65554687 29.21585937 26.43609375 29.23046875 25.1796875 C29.25129134 21.84274717 29.25129134 21.84274717 27 19 C24.62723912 18.67877786 22.42182587 18.81049318 20.03369141 18.9128418 C19.02701416 18.95598511 19.02701416 18.95598511 18 19 Z " fill="#000000" transform="translate(266,150)"/>
<path d="M0 0 C4.18736668 -0.08760181 8.37449531 -0.14059435 12.5625 -0.1875 C14.33463867 -0.22520508 14.33463867 -0.22520508 16.14257812 -0.26367188 C23.99855516 -0.32968849 29.4135893 -0.06157011 35.5625 5.1875 C43.132708 13.92235539 45.83256152 19.26251511 45 31 C43.92096823 37.72319794 40.11051192 41.21762529 35.05859375 45.53125 C33 47 33 47 31 47 C31.49983398 48.30203369 31.49983398 48.30203369 32.00976562 49.63037109 C33.24240224 52.84600108 34.4720624 56.06273606 35.69970703 59.28027344 C36.2320421 60.67363368 36.76556577 62.0665404 37.30029297 63.45898438 C38.06789756 65.45845906 38.83123788 67.45951617 39.59375 69.4609375 C40.05458984 70.66540527 40.51542969 71.86987305 40.99023438 73.11083984 C42 76 42 76 42 78 C36.39 78 30.78 78 25 78 C24.34 76.02 23.68 74.04 23 72 C21.00676095 71.33823318 21.00676095 71.33823318 19 71 C17.99511719 69.26586914 17.99511719 69.26586914 17.296875 67.03515625 C17.0390625 66.23529297 16.78125 65.43542969 16.515625 64.61132812 C16.26296875 63.77021484 16.0103125 62.92910156 15.75 62.0625 C15.481875 61.22525391 15.21375 60.38800781 14.9375 59.52539062 C13 53.38173629 13 53.38173629 13 51 C12.34 51 11.68 51 11 51 C10.87753906 52.28777344 10.75507812 53.57554687 10.62890625 54.90234375 C10.07569747 59.88122279 9.0728482 64.68812521 7.9375 69.5625 C7.75123047 70.38041016 7.56496094 71.19832031 7.37304688 72.04101562 C6.91979313 74.02835896 6.46053788 76.01433201 6 78 C0.72 78 -4.56 78 -10 78 C-9.67 76.02 -9.34 74.04 -9 72 C-10.98 72 -12.96 72 -15 72 C-14.22839826 64.46741549 -12.6561246 57.12856336 -11.09375 49.7265625 C-10.80590863 48.35277486 -10.51827374 46.97894395 -10.23083496 45.60507202 C-9.63106622 42.74197012 -9.02902312 39.87935896 -8.42529297 37.01708984 C-7.65111905 33.34597739 -6.88238876 29.67375003 -6.11528778 26.00115395 C-5.52369462 23.17151043 -4.92941969 20.34243547 -4.33430481 17.51353073 C-4.04963526 16.15888453 -3.76576685 14.80406971 -3.48271179 13.44908524 C-3.08818646 11.56265668 -2.6896981 9.67705826 -2.29101562 7.79150391 C-1.95245544 6.18222519 -1.95245544 6.18222519 -1.60705566 4.54043579 C-1 2 -1 2 0 0 Z M18 19 C16.70756464 23.1196377 15.73747375 26.66831683 16 31 C20.46463205 29.21048181 20.46463205 29.21048181 23.375 25.5625 C24.15797079 22.79192285 24.15797079 22.79192285 24 19 C22.02 19 20.04 19 18 19 Z " fill="#000000" transform="translate(743,150)"/>
<path d="M0 0 C6.6 0 13.2 0 20 0 C20.495 2.97 20.495 2.97 21 6 C22.32 6 23.64 6 25 6 C26.2995362 8.5990724 26.33358223 10.78132469 26.57250977 13.68383789 C26.67253799 14.87590347 26.77256622 16.06796906 26.87562561 17.29615784 C26.97983322 18.59190231 27.08404083 19.88764679 27.19140625 21.22265625 C27.30182118 22.56589335 27.41249701 23.90910902 27.52342224 25.25230408 C27.75551183 28.07416059 27.98463935 30.89623794 28.21166992 33.71850586 C28.50111971 37.31419177 28.7974677 40.90926746 29.09605503 44.50420475 C29.32611484 47.28287565 29.55259538 50.06182969 29.77802849 52.84087944 C29.93789121 54.80448083 30.10057442 56.76785195 30.26332092 58.73121643 C30.77780019 65.1790945 31.11836739 71.5317242 31 78 C26.05 78 21.1 78 16 78 C15.67 76.02 15.34 74.04 15 72 C13.68 72 12.36 72 11 72 C9.73913486 68.05979642 10 65.52419701 10 61 C4.72 61 -0.56 61 -6 61 C-6.99 63.97 -6.99 63.97 -8 67 C-9.59492906 70.70216867 -11.3047555 74.34184081 -13 78 C-18.61 78 -24.22 78 -30 78 C-29.34 76.02 -28.68 74.04 -28 72 C-30.31 72 -32.62 72 -35 72 C-33.61588422 67.51863415 -31.84661059 63.45011728 -29.74365234 59.26025391 C-29.42149246 58.61564209 -29.09933258 57.97103027 -28.76741028 57.30688477 C-27.71070432 55.19485665 -26.64837411 53.08571284 -25.5859375 50.9765625 C-24.84857797 49.50557693 -24.11157348 48.03441333 -23.37490845 46.56307983 C-21.44185192 42.70457667 -19.50400121 38.84850103 -17.56512451 34.99291992 C-15.58477238 31.05273112 -13.60898826 27.11025335 -11.6328125 23.16796875 C-7.75966168 15.44307035 -3.88102012 7.72094784 0 0 Z M8 31 C7.32880451 32.4562545 6.66318193 33.91507867 6 35.375 C5.62875 36.18710938 5.2575 36.99921875 4.875 37.8359375 C3.87504987 39.91998433 3.87504987 39.91998433 4 42 C5.65 42 7.3 42 9 42 C9 38.37 9 34.74 9 31 C8.67 31 8.34 31 8 31 Z " fill="#000000" transform="translate(341,150)"/>
<path d="M0 0 C12.87 0 25.74 0 39 0 C38.67 1.98 38.34 3.96 38 6 C39.98 6 41.96 6 44 6 C43.49042339 11.01083671 42.91507725 14.21230687 41 19 C33.41 19 25.82 19 18 19 C17.67 21.64 17.34 24.28 17 27 C21.95 27.33 26.9 27.66 32 28 C31.67 29.98 31.34 31.96 31 34 C32.98 34 34.96 34 37 34 C36.69128878 35.79232337 36.37790936 37.58384321 36.0625 39.375 C35.88847656 40.37273437 35.71445312 41.37046875 35.53515625 42.3984375 C35 45 35 45 34 47 C26.74 47 19.48 47 12 47 C11.34 50.96 10.68 54.92 10 59 C15.61 59 21.22 59 27 59 C26.67 60.98 26.34 62.96 26 65 C27.98 65 29.96 65 32 65 C31.69240822 66.97993541 31.3787932 68.95893599 31.0625 70.9375 C30.88847656 72.03964844 30.71445312 73.14179688 30.53515625 74.27734375 C30 77 30 77 29 78 C26.1156618 78.08865208 23.25537842 78.11521296 20.37109375 78.09765625 C19.07474754 78.09553383 19.07474754 78.09553383 17.75221252 78.09336853 C14.98060708 78.08775239 12.2090812 78.07519719 9.4375 78.0625 C7.5631522 78.05748708 5.68880315 78.05292381 3.81445312 78.04882812 C-0.79039544 78.03777772 -5.39518421 78.0205023 -10 78 C-9.67 76.02 -9.34 74.04 -9 72 C-10.98 72 -12.96 72 -15 72 C-14.22839826 64.46741549 -12.6561246 57.12856336 -11.09375 49.7265625 C-10.80590863 48.35277486 -10.51827374 46.97894395 -10.23083496 45.60507202 C-9.63106622 42.74197012 -9.02902312 39.87935896 -8.42529297 37.01708984 C-7.65111905 33.34597739 -6.88238876 29.67375003 -6.11528778 26.00115395 C-5.52369462 23.17151043 -4.92941969 20.34243547 -4.33430481 17.51353073 C-4.04963526 16.15888453 -3.76576685 14.80406971 -3.48271179 13.44908524 C-3.08818646 11.56265668 -2.6896981 9.67705826 -2.29101562 7.79150391 C-1.95245544 6.18222519 -1.95245544 6.18222519 -1.60705566 4.54043579 C-1 2 -1 2 0 0 Z " fill="#000000" transform="translate(691,150)"/>
<path d="M0 0 C5.28 0 10.56 0 16 0 C16.33 1.98 16.66 3.96 17 6 C18.32 6 19.64 6 21 6 C21.99 10.62 22.98 15.24 24 20 C27.49736328 15.74757266 27.49736328 15.74757266 29.7265625 11.23046875 C33.51556599 2.90115014 33.51556599 2.90115014 37 0 C42.82923924 -1.84494441 49.06093197 -0.86491282 55 0 C54.01 1.98 53.02 3.96 52 6 C54.64 6 57.28 6 60 6 C55.37771778 14.87620775 49.75180146 23.10364245 44.22021484 31.42529297 C41.45010573 35.59801592 38.71018864 39.78806725 36 44 C35.46858398 44.81533203 34.93716797 45.63066406 34.38964844 46.47070312 C30.73513565 52.47357371 29.48814962 58.63616388 28.25 65.5 C27.84147524 67.65680772 27.43017458 69.81309217 27.015625 71.96875 C26.84321289 72.91169922 26.67080078 73.85464844 26.49316406 74.82617188 C26 77 26 77 25 78 C22.30345146 78.07319621 19.63308542 78.09242537 16.9375 78.0625 C16.17888672 78.05798828 15.42027344 78.05347656 14.63867188 78.04882812 C12.75908129 78.0370068 10.87953101 78.01907078 9 78 C9.33 76.02 9.66 74.04 10 72 C8.02 72 6.04 72 4 72 C4.15670166 71.32533691 4.31340332 70.65067383 4.47485352 69.95556641 C5.18682762 66.84881862 5.87475199 63.73719658 6.5625 60.625 C6.80935547 59.56410156 7.05621094 58.50320312 7.31054688 57.41015625 C10.14921202 44.3762853 7.05913246 33.31776382 3.9375 20.625 C3.37040131 18.30888509 2.8053342 15.9923487 2.2457428 13.67440796 C1.89973989 12.24200586 1.54939419 10.81064366 1.19407654 9.38052368 C0.40220821 6.11025254 0 3.39526295 0 0 Z " fill="#000000" transform="translate(379,150)"/>
<path d="M0 0 C12.87 0 25.74 0 39 0 C38 6 38 6 36 12 C28.08 12 20.16 12 12 12 C11.67 14.97 11.34 17.94 11 21 C10.34 24.3 9.68 27.6 9 31 C16.26 31 23.52 31 31 31 C30.67 32.98 30.34 34.96 30 37 C31.98 37 33.96 37 36 37 C35.69128878 38.79232337 35.37790936 40.58384321 35.0625 42.375 C34.88847656 43.37273437 34.71445312 44.37046875 34.53515625 45.3984375 C34 48 34 48 33 50 C25.74 50 18.48 50 11 50 C10.67 52.97 10.34 55.94 10 59 C9.70728898 60.68416616 9.38950381 62.36454693 9.02734375 64.03515625 C8.85009766 64.86337891 8.67285156 65.69160156 8.49023438 66.54492188 C8.30783203 67.37572266 8.12542969 68.20652344 7.9375 69.0625 C7.75123047 69.92810547 7.56496094 70.79371094 7.37304688 71.68554688 C6.91933733 73.79122451 6.46023996 75.89574007 6 78 C0.72 78 -4.56 78 -10 78 C-9.67 76.02 -9.34 74.04 -9 72 C-10.98 72 -12.96 72 -15 72 C-14.22839826 64.46741549 -12.6561246 57.12856336 -11.09375 49.7265625 C-10.80590863 48.35277486 -10.51827374 46.97894395 -10.23083496 45.60507202 C-9.63106622 42.74197012 -9.02902312 39.87935896 -8.42529297 37.01708984 C-7.65111905 33.34597739 -6.88238876 29.67375003 -6.11528778 26.00115395 C-5.52369462 23.17151043 -4.92941969 20.34243547 -4.33430481 17.51353073 C-4.04963526 16.15888453 -3.76576685 14.80406971 -3.48271179 13.44908524 C-3.08818646 11.56265668 -2.6896981 9.67705826 -2.29101562 7.79150391 C-1.95245544 6.18222519 -1.95245544 6.18222519 -1.60705566 4.54043579 C-1 2 -1 2 0 0 Z " fill="#000000" transform="translate(466,150)"/>
<path d="M0 0 C5.28 0 10.56 0 16 0 C15.67 1.98 15.34 3.96 15 6 C16.98 6 18.96 6 21 6 C17.70177427 23.75507958 14.009298 41.39215519 10 59 C15.61 59 21.22 59 27 59 C26 65 26 65 23 72 C10.46 72 -2.08 72 -15 72 C-14.37542855 67.0034284 -13.7325359 62.31902572 -12.70898438 57.43212891 C-12.32353455 55.58078842 -12.32353455 55.58078842 -11.93029785 53.69204712 C-11.6516007 52.37018683 -11.37274779 51.04835937 -11.09375 49.7265625 C-10.80590863 48.35277486 -10.51827374 46.97894395 -10.23083496 45.60507202 C-9.63106622 42.74197012 -9.02902312 39.87935896 -8.42529297 37.01708984 C-7.65111905 33.34597739 -6.88238876 29.67375003 -6.11528778 26.00115395 C-5.52369462 23.17151043 -4.92941969 20.34243547 -4.33430481 17.51353073 C-4.04963526 16.15888453 -3.76576685 14.80406971 -3.48271179 13.44908524 C-3.08818646 11.56265668 -2.6896981 9.67705826 -2.29101562 7.79150391 C-1.95245544 6.18222519 -1.95245544 6.18222519 -1.60705566 4.54043579 C-1 2 -1 2 0 0 Z " fill="#000000" transform="translate(180,150)"/>
<path d="M0 0 C4.43704201 1.85824836 5.99551445 4.14525829 8.01171875 8.43359375 C11.69380147 21.72110964 10.0109785 37.37832826 3.6796875 49.53515625 C-1.32078148 57.71898389 -7.64292371 63.0524854 -16.68530273 66.20385742 C-23.11245207 67.74756619 -29.62558053 67.41073101 -36.1875 67.25 C-37.63083431 67.22988384 -39.07419601 67.2116422 -40.51757812 67.1953125 C-44.0122993 67.1517684 -47.5059674 67.08303158 -51 67 C-50.67 65.02 -50.34 63.04 -50 61 C-48.11667969 60.92652344 -48.11667969 60.92652344 -46.1953125 60.8515625 C-24.89900292 60.26049535 -24.89900292 60.26049535 -7.1875 49.4375 C0.95501741 39.20174109 4.18704607 24.91785425 3 12 C2.29830836 7.88821813 1.31865228 3.95595683 0 0 Z " fill="#9B6666" transform="translate(667,161)"/>
<path d="M0 0 C4.43704201 1.85824836 5.99551445 4.14525829 8.01171875 8.43359375 C11.69380147 21.72110964 10.0109785 37.37832826 3.6796875 49.53515625 C-1.32078148 57.71898389 -7.64292371 63.0524854 -16.68530273 66.20385742 C-23.11245207 67.74756619 -29.62558053 67.41073101 -36.1875 67.25 C-37.63083431 67.22988384 -39.07419601 67.2116422 -40.51757812 67.1953125 C-44.0122993 67.1517684 -47.5059674 67.08303158 -51 67 C-50.67 65.02 -50.34 63.04 -50 61 C-48.11667969 60.92652344 -48.11667969 60.92652344 -46.1953125 60.8515625 C-24.89900292 60.26049535 -24.89900292 60.26049535 -7.1875 49.4375 C0.95501741 39.20174109 4.18704607 24.91785425 3 12 C2.29830836 7.88821813 1.31865228 3.95595683 0 0 Z " fill="#9B6666" transform="translate(307,161)"/>
<path d="M0 0 C2.54684841 0.00022255 4.81125549 0.20079639 7.29394531 0.75024414 C2.6716631 9.62645189 -2.95425323 17.85388659 -8.48583984 26.17553711 C-11.25594896 30.34826006 -13.99586604 34.53831139 -16.70605469 38.75024414 C-17.2374707 39.56557617 -17.76888672 40.3809082 -18.31640625 41.22094727 C-21.97091903 47.22381785 -23.21790507 53.38640802 -24.45605469 60.25024414 C-24.86457944 62.40705186 -25.27588011 64.56333631 -25.69042969 66.71899414 C-25.8628418 67.66194336 -26.03525391 68.60489258 -26.21289062 69.57641602 C-26.70605469 71.75024414 -26.70605469 71.75024414 -27.70605469 72.75024414 C-30.40260322 72.82344035 -33.07296927 72.84266951 -35.76855469 72.81274414 C-36.52716797 72.80823242 -37.28578125 72.8037207 -38.06738281 72.79907227 C-39.9469734 72.78725094 -41.82652367 72.76931492 -43.70605469 72.75024414 C-43.04605469 70.77024414 -42.38605469 68.79024414 -41.70605469 66.75024414 C-38.73605469 66.75024414 -35.76605469 66.75024414 -32.70605469 66.75024414 C-32.62355469 65.28586914 -32.54105469 63.82149414 -32.45605469 62.31274414 C-32.22325798 60.12334652 -31.97128636 57.93594961 -31.70605469 55.75024414 C-31.52816406 53.9674707 -31.52816406 53.9674707 -31.34667969 52.14868164 C-29.33790387 38.14737273 -20.83194969 27.19790294 -12.87402344 15.90112305 C-11.37548367 13.72317774 -9.95089933 11.56210791 -8.56933594 9.31420898 C-7.88742187 8.22188965 -7.20550781 7.12957031 -6.50292969 6.00415039 C-5.90319336 5.01358643 -5.30345703 4.02302246 -4.68554688 3.00244141 C-2.70605469 0.75024414 -2.70605469 0.75024414 0 0 Z " fill="#9A6666" transform="translate(431.7060546875,155.249755859375)"/>
<path d="M0 0 C5.18311387 3.31143386 7.16819397 7.3012277 9 13 C9.53515538 16.58302189 9.57327122 20.06993171 9.5 23.6875 C9.48078491 25.13443237 9.48078491 25.13443237 9.46118164 26.6105957 C9.08280573 40.04237931 5.4896404 51.71469341 -3.69140625 61.87109375 C-5.38027283 63.44240581 -7.07617639 64.72970458 -9 66 C-9.59683594 66.41121094 -10.19367188 66.82242188 -10.80859375 67.24609375 C-16.01650586 70.17998576 -21.21541155 70.41069512 -27.0625 70.5 C-27.81829346 70.51853027 -28.57408691 70.53706055 -29.3527832 70.55615234 C-35.57138474 70.48716949 -41.09388735 68.88263696 -45.60180664 64.41113281 C-46.79705622 62.99110869 -47.90829722 61.50109132 -49 60 C-46 60 -46 60 -43.671875 60.953125 C-36.28872414 63.84593849 -27.39767585 63.8001766 -20 61 C-10.99724251 57.01266759 -5.76737547 51.15936233 -1.75390625 42.2265625 C-0.71423606 39.50742508 0.18029213 36.79277354 1 34 C1.22558594 33.24976563 1.45117188 32.49953125 1.68359375 31.7265625 C4.10690458 22.46784389 3.52837668 13.1538309 1 4 C0.66448935 2.66721288 0.33053001 1.33403103 0 0 Z " fill="#9A6565" transform="translate(156,159)"/>
<path d="M0 0 C2.31 0 4.62 0 7 0 C5.71195426 8.96376815 4.09456133 17.81054795 2.21484375 26.66796875 C1.82311729 28.53102409 1.82311729 28.53102409 1.42347717 30.43171692 C0.87639031 33.02948185 0.32796017 35.62691461 -0.22290039 38.22387695 C-0.9288835 41.55289127 -1.6291206 44.88308415 -2.32767582 48.21366405 C-2.99820392 51.40735672 -3.67307289 54.60013059 -4.34765625 57.79296875 C-4.59870621 58.98866989 -4.84975616 60.18437103 -5.1084137 61.41630554 C-5.34213181 62.51537735 -5.57584991 63.61444916 -5.81665039 64.74682617 C-6.02157608 65.71577316 -6.22650177 66.68472015 -6.43763733 67.68302917 C-7 70 -7 70 -8 72 C-13.94 72 -19.88 72 -26 72 C-26.99 69.03 -26.99 69.03 -28 66 C-23.38 66 -18.76 66 -14 66 C-13.5978125 63.84597656 -13.5978125 63.84597656 -13.1875 61.6484375 C-10.53124984 47.56521241 -7.69163399 33.52609512 -4.75 19.5 C-4.57178711 18.64573425 -4.39357422 17.79146851 -4.20996094 16.91131592 C-3.70034669 14.47146733 -3.18679756 12.03248312 -2.671875 9.59375 C-2.51789246 8.85528839 -2.36390991 8.11682678 -2.20526123 7.35598755 C-1.11502545 2.23005091 -1.11502545 2.23005091 0 0 Z " fill="#996565" transform="translate(609,156)"/>
<path d="M0 0 C2.31 0 4.62 0 7 0 C6.42627027 8.33854954 4.80569588 16.37906978 3.05859375 24.5390625 C2.76809743 25.91472789 2.47807164 27.29049271 2.18849182 28.66635132 C1.43200914 32.25439938 0.66922188 35.84107749 -0.0949707 39.42749023 C-0.87643579 43.10058017 -1.6518142 46.77495425 -2.42773438 50.44921875 C-3.94593213 57.6340719 -5.47136701 64.81735834 -7 72 C-12.28 72 -17.56 72 -23 72 C-23 67 -23 67 -22 66 C-18.99996555 65.85822143 -16.00242765 65.95771229 -13 66 C-12.95939957 65.43157379 -12.91879913 64.86314758 -12.87696838 64.27749634 C-12.26003907 56.9662034 -10.84758368 49.93324977 -9.27734375 42.7734375 C-9.01240616 41.54460846 -8.74746857 40.31577942 -8.47450256 39.04971313 C-7.77647822 35.81689503 -7.07373281 32.5851534 -6.36859131 29.35388184 C-5.64728249 26.04278536 -4.93232489 22.73031833 -4.21679688 19.41796875 C-2.81698343 12.94404785 -1.41092658 6.47150746 0 0 Z " fill="#996565" transform="translate(92,156)"/>
<path d="M0 0 C1.134375 0.020625 2.26875 0.04125 3.4375 0.0625 C3.12878878 1.85482337 2.81540936 3.64634321 2.5 5.4375 C2.32597656 6.43523437 2.15195312 7.43296875 1.97265625 8.4609375 C1.4375 11.0625 1.4375 11.0625 0.4375 13.0625 C-6.8225 13.0625 -14.0825 13.0625 -21.5625 13.0625 C-21.8925 16.0325 -22.2225 19.0025 -22.5625 22.0625 C-22.85521102 23.74666616 -23.17299619 25.42704693 -23.53515625 27.09765625 C-23.71240234 27.92587891 -23.88964844 28.75410156 -24.07226562 29.60742188 C-24.25466797 30.43822266 -24.43707031 31.26902344 -24.625 32.125 C-24.81126953 32.99060547 -24.99753906 33.85621094 -25.18945312 34.74804688 C-25.64316267 36.85372451 -26.10226004 38.95824007 -26.5625 41.0625 C-31.8425 41.0625 -37.1225 41.0625 -42.5625 41.0625 C-42.0675 38.0925 -42.0675 38.0925 -41.5625 35.0625 C-38.5925 35.0625 -35.6225 35.0625 -32.5625 35.0625 C-32.37880859 33.16177734 -32.37880859 33.16177734 -32.19140625 31.22265625 C-31.60143965 25.91295687 -30.58503381 20.7273331 -29.5 15.5 C-28.860625 12.385625 -28.22125 9.27125 -27.5625 6.0625 C-19.9725 6.0625 -12.3825 6.0625 -4.5625 6.0625 C-4.5625 4.4125 -4.5625 2.7625 -4.5625 1.0625 C-3.5625 0.0625 -3.5625 0.0625 0 0 Z " fill="#9A6666" transform="translate(498.5625,186.9375)"/>
<path d="M0 0 C3.78834395 1.26278132 4.22011278 2.52112952 6 6 C8.05214552 12.62027767 7.989712 20.66884275 5.2578125 27.07421875 C2.63060237 31.09662433 -1.11167094 34.2257842 -5 37 C-5.66 37 -6.32 37 -7 37 C-6.66677734 37.86802246 -6.33355469 38.73604492 -5.99023438 39.63037109 C-4.75759776 42.84600108 -3.5279376 46.06273606 -2.30029297 49.28027344 C-1.7679579 50.67363368 -1.23443423 52.0665404 -0.69970703 53.45898438 C0.06789756 55.45845906 0.83123788 57.45951617 1.59375 59.4609375 C2.05458984 60.66540527 2.51542969 61.86987305 2.99023438 63.11083984 C4 66 4 66 4 68 C-1.61 68 -7.22 68 -13 68 C-13.99 65.03 -13.99 65.03 -15 62 C-10.71 62 -6.42 62 -2 62 C-2.80566406 60.02515625 -3.61132812 58.0503125 -4.44140625 56.015625 C-5.21517585 54.09709558 -5.98508513 52.17705974 -6.75463867 50.25683594 C-7.29098415 48.92448181 -7.83132021 47.59372682 -8.37573242 46.26464844 C-9.15821514 44.3523893 -9.92610089 42.43481231 -10.69140625 40.515625 C-11.15748291 39.36352539 -11.62355957 38.21142578 -12.10375977 37.02441406 C-12.98721383 34.04314767 -13.24852228 32.79855156 -12 30 C-10.2578125 28.47265625 -10.2578125 28.47265625 -8.125 27.0625 C-3.52181014 23.79332938 -1.04867712 20.59918674 0 15 C0.06898242 12.40626086 0.09434752 9.84189803 0.0625 7.25 C0.05798828 6.55261719 0.05347656 5.85523438 0.04882812 5.13671875 C0.0371002 3.42444197 0.01916653 1.71220967 0 0 Z " fill="#9A6666" transform="translate(781,160)"/>
<path d="M0 0 C1.65 0 3.3 0 5 0 C6.2995362 2.5990724 6.33358223 4.78132469 6.57250977 7.68383789 C6.67253799 8.87590347 6.77256622 10.06796906 6.87562561 11.29615784 C7.03193703 13.23977455 7.03193703 13.23977455 7.19140625 15.22265625 C7.30182118 16.56589335 7.41249701 17.90910902 7.52342224 19.25230408 C7.75551183 22.07416059 7.98463935 24.89623794 8.21166992 27.71850586 C8.50111971 31.31419177 8.7974677 34.90926746 9.09605503 38.50420475 C9.32611484 41.28287565 9.55259538 44.06182969 9.77802849 46.84087944 C9.93789121 48.80448083 10.10057442 50.76785195 10.26332092 52.73121643 C10.77780019 59.1790945 11.11836739 65.5317242 11 72 C6.05 72 1.1 72 -4 72 C-4.495 69.03 -4.495 69.03 -5 66 C-1.7 66 1.6 66 5 66 C4.93735962 65.29113647 4.87471924 64.58227295 4.81018066 63.85192871 C4.21805803 57.14415938 3.62930082 50.43610395 3.04424286 43.72771454 C2.74340328 40.2795753 2.44130181 36.83155668 2.13623047 33.38378906 C1.78488838 29.41244263 1.43918948 25.44061438 1.09375 21.46875 C0.9843811 20.24136108 0.87501221 19.01397217 0.7623291 17.74938965 C0.24982226 11.80740388 -0.1290931 5.96410144 0 0 Z " fill="#976464" transform="translate(361,156)"/>
<path d="M0 0 C2.64 0 5.28 0 8 0 C7.78201576 3.22757306 7.30229803 6.02604954 6 9 C4.03686523 9.8737793 4.03686523 9.8737793 1.68359375 10.57421875 C-0.9737897 11.93482662 -2.58408885 13.05433727 -3.80465698 15.82955933 C-5.58461456 21.63659241 -6.50397501 27.64460261 -7.5 33.625 C-7.83233166 35.45638717 -8.16823446 37.28713011 -8.5078125 39.1171875 C-9.12604645 42.460891 -9.72041236 45.80722403 -10.29492188 49.15869141 C-11 53 -11 53 -12 56 C-16.875 55.125 -16.875 55.125 -18 54 C-18.31340794 48.44614081 -17.46234746 43.49115559 -16.28515625 38.109375 C-16.10995956 37.28294495 -15.93476288 36.45651489 -15.7542572 35.6050415 C-15.19695058 32.98523117 -14.62966644 30.36769128 -14.0625 27.75 C-13.68493519 25.97669263 -13.30797607 24.20325618 -12.93164062 22.4296875 C-12.57086115 20.73946613 -12.20955158 19.0493578 -11.84765625 17.359375 C-11.6778273 16.56561462 -11.50799835 15.77185425 -11.33302307 14.95404053 C-10.6728554 11.91086958 -9.98556681 8.95670044 -9 6 C-6.93359375 5.05078125 -6.93359375 5.05078125 -4.4375 4.3125 C-3.61121094 4.06113281 -2.78492188 3.80976563 -1.93359375 3.55078125 C-1.29550781 3.36902344 -0.65742187 3.18726563 0 3 C0 2.01 0 1.02 0 0 Z " fill="#986565" transform="translate(541,156)"/>
<path d="M0 0 C2.64 0 5.28 0 8 0 C7.78201576 3.22757306 7.30229803 6.02604954 6 9 C4.03686523 9.8737793 4.03686523 9.8737793 1.68359375 10.57421875 C-0.9737897 11.93482662 -2.58408885 13.05433727 -3.80465698 15.82955933 C-5.58461456 21.63659241 -6.50397501 27.64460261 -7.5 33.625 C-7.83233166 35.45638717 -8.16823446 37.28713011 -8.5078125 39.1171875 C-9.12604645 42.460891 -9.72041236 45.80722403 -10.29492188 49.15869141 C-11 53 -11 53 -12 56 C-16.875 55.125 -16.875 55.125 -18 54 C-18.31340794 48.44614081 -17.46234746 43.49115559 -16.28515625 38.109375 C-16.10995956 37.28294495 -15.93476288 36.45651489 -15.7542572 35.6050415 C-15.19695058 32.98523117 -14.62966644 30.36769128 -14.0625 27.75 C-13.68493519 25.97669263 -13.30797607 24.20325618 -12.93164062 22.4296875 C-12.57086115 20.73946613 -12.20955158 19.0493578 -11.84765625 17.359375 C-11.6778273 16.56561462 -11.50799835 15.77185425 -11.33302307 14.95404053 C-10.6728554 11.91086958 -9.98556681 8.95670044 -9 6 C-6.93359375 5.05078125 -6.93359375 5.05078125 -4.4375 4.3125 C-3.61121094 4.06113281 -2.78492188 3.80976563 -1.93359375 3.55078125 C-1.29550781 3.36902344 -0.65742188 3.18726563 0 3 C0 2.01 0 1.02 0 0 Z " fill="#986565" transform="translate(253,156)"/>
<path d="M0 0 C0.66 0 1.32 0 2 0 C2.51468115 1.49502619 3.01088241 2.99641629 3.5 4.5 C3.7784375 5.3353125 4.056875 6.170625 4.34375 7.03125 C5.88957312 14.02425934 4.71678606 20.56835875 3.28515625 27.4609375 C3.02236122 28.7686058 3.02236122 28.7686058 2.7542572 30.10269165 C2.38545026 31.9303616 2.01296493 33.7572928 1.63696289 35.58349609 C1.0602206 38.38607633 0.49500158 41.19079611 -0.06835938 43.99609375 C-0.42902311 45.77617641 -0.79032833 47.55612924 -1.15234375 49.3359375 C-1.3221727 50.17546967 -1.49200165 51.01500183 -1.66697693 51.87997437 C-2.88311463 57.76622926 -2.88311463 57.76622926 -4 60 C-8.62 60 -13.24 60 -18 60 C-17.505 57.03 -17.505 57.03 -17 54 C-14.36 54 -11.72 54 -9 54 C-8.96841797 53.42419189 -8.93683594 52.84838379 -8.90429688 52.25512695 C-8.22111535 42.75800488 -6.32085732 33.51643783 -4.5 24.1875 C-4.01657317 21.68416038 -3.5346444 19.18053655 -3.05310059 16.67683411 C-2.75514768 15.130565 -2.45583221 13.58455758 -2.15490723 12.03886414 C-1.37741707 8.03437213 -0.64974487 4.02722965 0 0 Z " fill="#986464" transform="translate(562,168)"/>
<path d="M0 0 C2.96449755 1.76608365 4.64254099 2.7833072 5.62890625 6.140625 C5.75136719 6.75421875 5.87382812 7.3678125 6 8 C5.41992188 7.95359375 4.83984375 7.9071875 4.2421875 7.859375 C-1.40815512 7.59830306 -4.64389822 8.03990747 -9 12 C-17.73704599 22.80307112 -17.38775621 34.81628899 -17 48 C-19.62211651 47.00540408 -20.93937282 46.07464979 -22.72265625 43.87890625 C-24.35330137 40.20372139 -24.49218433 36.88756097 -24.4375 32.9375 C-24.42831543 31.81347778 -24.42831543 31.81347778 -24.41894531 30.66674805 C-24.16901071 21.67390884 -21.82995595 13.030241 -16 6 C-10.94782257 1.23428624 -7.1064798 -0.99381806 0 0 Z " fill="#986565" transform="translate(138,161)"/>
<path d="M0 0 C6.93 0 13.86 0 21 0 C21 1.98 21 3.96 21 6 C16.05 6 11.1 6 6 6 C5.7525 7.77375 5.505 9.5475 5.25 11.375 C3.93302019 20.01171543 1.9670959 28.49183276 0 37 C-5.28 37 -10.56 37 -16 37 C-15.505 34.03 -15.505 34.03 -15 31 C-12.03 31 -9.06 31 -6 31 C-5.90203125 30.27039063 -5.8040625 29.54078125 -5.703125 28.7890625 C-4.30904073 19.05450853 -2.19517755 9.58560862 0 0 Z " fill="#9A6666" transform="translate(49,191)"/>
<path d="M0 0 C8.62242152 -0.76681614 8.62242152 -0.76681614 12 1.11328125 C13.625 2.5 13.625 2.5 16 5 C15.67 5.99 15.34 6.98 15 8 C12.03 7.67 9.06 7.34 6 7 C5.86424561 7.74459473 5.72849121 8.48918945 5.58862305 9.25634766 C0.59776831 36.57404344 0.59776831 36.57404344 -2 48 C-4.31 48 -6.62 48 -9 48 C-8.37131016 39.32931934 -6.72506284 30.95866731 -4.98876953 22.45678711 C-4.49632499 20.04449757 -4.0112692 17.63080843 -3.52734375 15.21679688 C-3.21657014 13.67699764 -2.90538717 12.13728095 -2.59375 10.59765625 C-2.44893188 9.87892838 -2.30411377 9.1602005 -2.15490723 8.41969299 C-1.56585368 5.54324498 -0.92963349 2.78890046 0 0 Z " fill="#976464" transform="translate(638,162)"/>
<path d="M0 0 C8.62242152 -0.76681614 8.62242152 -0.76681614 12 1.11328125 C13.625 2.5 13.625 2.5 16 5 C15.67 5.99 15.34 6.98 15 8 C12.03 7.67 9.06 7.34 6 7 C5.86424561 7.74459473 5.72849121 8.48918945 5.58862305 9.25634766 C0.59776831 36.57404344 0.59776831 36.57404344 -2 48 C-4.31 48 -6.62 48 -9 48 C-8.37131016 39.32931934 -6.72506284 30.95866731 -4.98876953 22.45678711 C-4.49632499 20.04449757 -4.0112692 17.63080843 -3.52734375 15.21679688 C-3.21657014 13.67699764 -2.90538717 12.13728095 -2.59375 10.59765625 C-2.44893188 9.87892838 -2.30411377 9.1602005 -2.15490723 8.41969299 C-1.56585368 5.54324498 -0.92963349 2.78890046 0 0 Z " fill="#976464" transform="translate(278,162)"/>
<path d="M0 0 C1.134375 0.020625 2.26875 0.04125 3.4375 0.0625 C0.05406003 18.12870696 -3.63929025 36.10634891 -7.5625 54.0625 C-9.8725 54.0625 -12.1825 54.0625 -14.5625 54.0625 C-14.00467514 47.1579153 -12.97283665 40.48696727 -11.53125 33.71484375 C-11.33527222 32.77693497 -11.13929443 31.83902618 -10.93737793 30.87269592 C-10.52637125 28.91175099 -10.11280972 26.95133992 -9.69677734 24.99145508 C-9.05786398 21.97813506 -8.42877915 18.96287735 -7.80078125 15.94726562 C-7.39901307 14.03633723 -6.99668971 12.12552546 -6.59375 10.21484375 C-6.40518433 9.31080307 -6.21661865 8.40676239 -6.02233887 7.47532654 C-5.84545532 6.64678665 -5.66857178 5.81824677 -5.48632812 4.96459961 C-5.33168091 4.23309189 -5.17703369 3.50158417 -5.0177002 2.74790955 C-4.15040596 -0.46330609 -3.59243264 0.06302513 0 0 Z " fill="#986464" transform="translate(197.5625,155.9375)"/>
<path d="M0 0 C7.59 0 15.18 0 23 0 C23 1.98 23 3.96 23 6 C17.39 6 11.78 6 6 6 C5.34 7.98 4.68 9.96 4 12 C2.40507094 15.70216867 0.6952445 19.34184081 -1 23 C-6.61 23 -12.22 23 -18 23 C-17.34 21.02 -16.68 19.04 -16 17 C-13.03 17 -10.06 17 -7 17 C-6.5875 15.68 -6.175 14.36 -5.75 13 C-4.27265772 8.27250471 -2.3046719 4.60934379 0 0 Z " fill="#9B6666" transform="translate(329,205)"/>
<path d="M0 0 C1.134375 0.020625 2.26875 0.04125 3.4375 0.0625 C3.12878878 1.85482337 2.81540936 3.64634321 2.5 5.4375 C2.32597656 6.43523437 2.15195312 7.43296875 1.97265625 8.4609375 C1.4375 11.0625 1.4375 11.0625 0.4375 13.0625 C-7.1525 13.0625 -14.7425 13.0625 -22.5625 13.0625 C-23.2225 17.0225 -23.8825 20.9825 -24.5625 25.0625 C-26.8725 25.0625 -29.1825 25.0625 -31.5625 25.0625 C-31.44510541 23.58271031 -31.31803868 22.10368816 -31.1875 20.625 C-31.11789062 19.80128906 -31.04828125 18.97757813 -30.9765625 18.12890625 C-30.42766499 14.06395769 -29.45231413 10.06666359 -28.5625 6.0625 C-20.6425 6.0625 -12.7225 6.0625 -4.5625 6.0625 C-4.5625 4.4125 -4.5625 2.7625 -4.5625 1.0625 C-3.5625 0.0625 -3.5625 0.0625 0 0 Z " fill="#9B6666" transform="translate(506.5625,155.9375)"/>
<path d="M0 0 C2.31 0 4.62 0 7 0 C6.49042339 5.01083671 5.91507725 8.21230687 4 13 C-3.59 13 -11.18 13 -19 13 C-19.66 16.3 -20.32 19.6 -21 23 C-23.31 23 -25.62 23 -28 23 C-27.01 17.39 -26.02 11.78 -25 6 C-17.08 6 -9.16 6 -1 6 C-0.67 4.02 -0.34 2.04 0 0 Z " fill="#9A6666" transform="translate(728,156)"/>
<path d="M0 0 C2.31 0 4.62 0 7 0 C6.69128878 1.79232337 6.37790936 3.58384321 6.0625 5.375 C5.88847656 6.37273437 5.71445312 7.37046875 5.53515625 8.3984375 C5 11 5 11 4 13 C-3.26 13 -10.52 13 -18 13 C-18.66 17.29 -19.32 21.58 -20 26 C-22.31 26 -24.62 26 -27 26 C-26.88260541 24.52021031 -26.75553868 23.04118816 -26.625 21.5625 C-26.55539062 20.73878906 -26.48578125 19.91507813 -26.4140625 19.06640625 C-25.86516499 15.00145769 -24.88981413 11.00416359 -24 7 C-16.74 7 -9.48 7 -2 7 C-1.34 4.69 -0.68 2.38 0 0 Z " fill="#9A6666" transform="translate(721,184)"/>
<path d="M0 0 C2.31 0 4.62 0 7 0 C7.33 2.31 7.66 4.62 8 7 C7.34 7 6.68 7 6 7 C5.87753906 8.28777344 5.75507812 9.57554687 5.62890625 10.90234375 C5.07569747 15.88122279 4.0728482 20.68812521 2.9375 25.5625 C2.75123047 26.38041016 2.56496094 27.19832031 2.37304688 28.04101562 C1.91979313 30.02835896 1.46053788 32.01433201 1 34 C-4.28 34 -9.56 34 -15 34 C-14.505 31.03 -14.505 31.03 -14 28 C-11.03 28 -8.06 28 -5 28 C-4.87753906 26.8965625 -4.75507812 25.793125 -4.62890625 24.65625 C-3.99067194 19.55037555 -2.97359574 14.53769521 -1.9375 9.5 C-1.75123047 8.5821875 -1.56496094 7.664375 -1.37304688 6.71875 C-0.91801873 4.47861146 -0.46028733 2.23906274 0 0 Z " fill="#996565" transform="translate(748,194)"/>
<path d="M0 0 C2.31 0 4.62 0 7 0 C6.69240822 1.97993541 6.3787932 3.95893599 6.0625 5.9375 C5.88847656 7.03964844 5.71445312 8.14179688 5.53515625 9.27734375 C5 12 5 12 4 13 C1.1156618 13.08865208 -1.74462158 13.11521296 -4.62890625 13.09765625 C-5.92525246 13.09553383 -5.92525246 13.09553383 -7.24778748 13.09336853 C-10.01939292 13.08775239 -12.7909188 13.07519719 -15.5625 13.0625 C-17.4368478 13.05748708 -19.31119685 13.05292381 -21.18554688 13.04882812 C-25.79039544 13.03777772 -30.39518421 13.0205023 -35 13 C-34.67 11.02 -34.34 9.04 -34 7 C-23.44 6.67 -12.88 6.34 -2 6 C-1.34 4.02 -0.68 2.04 0 0 Z " fill="#9D6767" transform="translate(716,215)"/>
<path d="M0 0 C1.65 0 3.3 0 5 0 C5.02686553 1.97909398 5.04633375 3.95828971 5.0625 5.9375 C5.07410156 7.03964844 5.08570313 8.14179688 5.09765625 9.27734375 C5 12 5 12 4 13 C1.1156618 13.08865208 -1.74462158 13.11521296 -4.62890625 13.09765625 C-5.92525246 13.09553383 -5.92525246 13.09553383 -7.24778748 13.09336853 C-10.01939292 13.08775239 -12.7909188 13.07519719 -15.5625 13.0625 C-17.4368478 13.05748708 -19.31119685 13.05292381 -21.18554688 13.04882812 C-25.79039544 13.03777772 -30.39518421 13.0205023 -35 13 C-34.67 11.02 -34.34 9.04 -34 7 C-23.44 6.67 -12.88 6.34 -2 6 C-1.34 4.02 -0.68 2.04 0 0 Z " fill="#9C6767" transform="translate(205,215)"/>
<path d="M0 0 C1.98 0.66 3.96 1.32 6 2 C5.67 5.3 5.34 8.6 5 12 C-5.56 12 -16.12 12 -27 12 C-26.67 10.02 -26.34 8.04 -26 6 C-17.75 6 -9.5 6 -1 6 C-0.67 4.02 -0.34 2.04 0 0 Z " fill="#9D6868" transform="translate(529,216)"/>
<path d="M0 0 C1.98 0.66 3.96 1.32 6 2 C5.67 5.3 5.34 8.6 5 12 C-5.56 12 -16.12 12 -27 12 C-26.67 10.02 -26.34 8.04 -26 6 C-17.75 6 -9.5 6 -1 6 C-0.67 4.02 -0.34 2.04 0 0 Z " fill="#9D6868" transform="translate(241,216)"/>
<path d="M0 0 C0.33 0 0.66 0 1 0 C1.95744681 20.53191489 1.95744681 20.53191489 -4 30 C-6.97 30 -9.94 30 -13 30 C-9.94589678 19.50152018 -4.8924305 9.74572156 0 0 Z " fill="#996565" transform="translate(349,162)"/>
<path d="M0 0 C1.65 0 3.3 0 5 0 C6.4390337 5.10053247 7.8625781 10.20505339 9.27246094 15.3137207 C9.75333936 17.04794904 10.23829611 18.78105224 10.72753906 20.51293945 C11.4335142 23.0148289 12.1243068 25.52051259 12.8125 28.02734375 C13.03123779 28.79022202 13.24997559 29.55310028 13.4753418 30.33909607 C14.92495104 35.69772831 15.19266709 40.44877939 15 46 C14.01 46.495 14.01 46.495 13 47 C9.73340534 36.98884813 7.08569279 26.84345263 4.46484375 16.6484375 C3.03227979 11.08351491 1.52682643 5.53971727 0 0 Z " fill="#946161" transform="translate(573,156)"/>
<path d="M0 0 C7.27272727 -0.36363636 7.27272727 -0.36363636 10.5 1.25 C12 3 12 3 12 7 C10.02 7 8.04 7 6 7 C5.86722656 7.85464844 5.73445312 8.70929688 5.59765625 9.58984375 C5.33275391 11.24693359 5.33275391 11.24693359 5.0625 12.9375 C4.88847656 14.03964844 4.71445312 15.14179688 4.53515625 16.27734375 C4 19 4 19 3 20 C1.00041636 20.04080783 -1.00045254 20.04254356 -3 20 C-3.48452463 13.05514697 -1.69287491 6.7009632 0 0 Z " fill="#976464" transform="translate(755,162)"/>
<path d="M0 0 C1.134375 0.020625 2.26875 0.04125 3.4375 0.0625 C2.79796095 3.54285464 2.14982005 7.0215515 1.5 10.5 C1.31759766 11.49322266 1.13519531 12.48644531 0.94726562 13.50976562 C0.77001953 14.45400391 0.59277344 15.39824219 0.41015625 16.37109375 C0.24781494 17.24564209 0.08547363 18.12019043 -0.08178711 19.02124023 C-0.5625 21.0625 -0.5625 21.0625 -1.5625 22.0625 C-3.89547433 22.10342937 -6.22955225 22.10491723 -8.5625 22.0625 C-7.92296095 18.58214536 -7.27482005 15.1034485 -6.625 11.625 C-6.44259766 10.63177734 -6.26019531 9.63855469 -6.07226562 8.61523438 C-5.89501953 7.67099609 -5.71777344 6.72675781 -5.53515625 5.75390625 C-5.37281494 4.87935791 -5.21047363 4.00480957 -5.04321289 3.10375977 C-4.21755341 -0.40225291 -3.8649317 0.06780582 0 0 Z " fill="#986464" transform="translate(60.5625,155.9375)"/>
<path d="M0 0 C1.65 0 3.3 0 5 0 C5.5361079 2.18380675 6.05320098 4.37228583 6.5625 6.5625 C6.85253906 7.78066406 7.14257812 8.99882812 7.44140625 10.25390625 C8.11445694 14.76758182 8.07250561 18.85498877 6 23 C5.34 23 4.68 23 4 23 C2.68 15.41 1.36 7.82 0 0 Z " fill="#936161" transform="translate(395,156)"/>
<path d="M0 0 C0.33 0 0.66 0 1 0 C1 2.31 1 4.62 1 7 C-0.32 7.33 -1.64 7.66 -3 8 C-1.125 1.125 -1.125 1.125 0 0 Z " fill="#7D5252" transform="translate(349,162)"/>
</svg>
